<svg width="304" height="67" viewBox="0 0 304 67" fill="none" xmlns="http://www.w3.org/2000/svg">
<g clip-path="url(#clip0_4_16)">
<path d="M32.6119 0.306436C31.7115 0.435537 30.9267 0.588845 30.8854 0.645327C30.8276 0.685671 30.8854 1.2747 31.0011 1.94441C31.1167 2.61412 31.2406 3.31611 31.2572 3.5259C31.2985 3.81638 31.0424 3.94548 29.9272 4.23596C27.3418 4.92181 27.6226 5.01863 27.0939 3.37259C26.8379 2.57378 26.5405 1.92827 26.4414 1.92827C25.8962 1.92827 22.3938 3.13053 22.3938 3.31611C22.3938 3.45328 22.6086 4.13913 22.8812 4.88146C23.1372 5.60766 23.3768 6.30965 23.3768 6.43068C23.3768 6.60012 20.6178 8.41561 20.337 8.41561C20.2792 8.41561 19.6596 7.80238 18.9492 7.07618C18.2306 6.33385 17.6028 5.74483 17.5202 5.74483C17.4624 5.74483 16.6859 6.34999 15.7855 7.09232L14.1582 8.44789L15.4716 9.88414L16.7768 11.2962L15.4469 12.6114L14.1169 13.9024L12.787 12.8777C12.0684 12.3048 11.4158 11.8449 11.3828 11.8449C11.3415 11.8449 10.6558 12.5872 9.87112 13.4828C8.68162 14.8626 8.48338 15.1854 8.72293 15.3548C10.2263 16.4602 11.4406 17.4124 11.4406 17.493C11.4406 17.5899 9.8959 20.4301 9.73895 20.5995C9.69765 20.656 8.9377 20.4462 8.01254 20.1396C7.11216 19.8411 6.33569 19.6313 6.29438 19.6878C5.96397 20.0509 4.7497 23.5205 4.90665 23.6496C5.00577 23.7464 5.7079 24.0127 6.45133 24.2467C7.21128 24.4726 7.88037 24.7227 7.93819 24.7953C8.07036 24.9083 7.32693 28.1358 7.13694 28.3053C7.07912 28.3618 6.33569 28.2891 5.49313 28.1358C4.63405 27.9987 3.90714 27.9099 3.86584 27.9422C3.82454 27.9664 3.59325 28.9185 3.33718 30.0401C3.02329 31.4763 2.94894 32.1218 3.10589 32.1622C3.22153 32.1945 3.94845 32.3316 4.69188 32.4446C6.79827 32.7915 6.74044 32.7512 6.74044 33.6065V34.3569H10.9532H15.1577V33.2434C15.1743 28.9589 16.9585 24.0127 19.7505 20.4301C20.6922 19.244 23.0216 16.904 23.5503 16.6297C23.8394 16.4844 24.1946 16.904 26.0366 19.6071C27.2096 21.3419 28.3413 23.0605 28.5395 23.4075L28.9112 24.0127L28.0108 25.0293C26.8957 26.2881 25.8962 28.0793 25.3097 29.9675C24.9215 31.1455 24.8389 31.8152 24.8636 33.784C24.8636 35.0992 24.9545 36.5113 25.0949 36.9309C25.2684 37.5037 25.2684 37.7135 25.0784 37.8265C24.9545 37.8991 19.3044 39.7711 12.5309 41.9819C5.7492 44.1767 0.132165 46.0648 0.0495611 46.1455C-0.0247821 46.2181 5.6253 44.4268 12.6549 42.1353C19.6596 39.8437 25.4088 37.9959 25.4254 38.0363C25.4501 38.0524 25.6071 38.472 25.7805 38.9481C25.9788 39.4241 26.4249 40.2875 26.7966 40.8604C28.11 42.8776 28.4569 42.1917 23.6494 47.0169C19.6183 51.0836 19.2631 51.3902 17.132 52.6489L14.8604 53.9803L14.3895 56.3283C14.1417 57.6274 13.8443 58.8297 13.7452 58.9991C13.6461 59.1928 13.6296 59.338 13.7122 59.338C13.7865 59.338 14.976 58.7732 16.3885 58.047L18.9327 56.764L19.8331 54.9324C20.7087 53.1411 20.8491 52.9717 24.9958 48.8324C27.3418 46.4843 29.3986 44.4833 29.5555 44.4026C29.729 44.3138 30.0677 44.4268 30.4724 44.7092C31.8436 45.742 33.9005 46.5247 35.9573 46.8474C36.5603 46.9443 36.6759 47.0411 36.6759 47.4203C36.6759 47.6866 36.5603 47.8964 36.4447 47.8964C35.9325 47.8803 33.5866 47.5172 33.2727 47.4042C33.0001 47.3074 32.9588 47.4768 32.9588 48.905C32.9588 50.3574 33.0001 50.551 33.3305 50.664C33.6444 50.7608 33.7022 50.8899 33.5866 51.479C33.347 52.8587 33.3883 52.9313 34.2309 53.0685C34.6604 53.1411 35.0734 53.1653 35.1313 53.125C35.2139 53.0846 35.3047 52.6247 35.3873 52.0922C35.503 51.2369 35.5608 51.1401 35.9903 51.1401C36.4612 51.1401 36.4777 51.1965 36.4777 52.189V53.238H37.4607H38.4354V52.189C38.4354 51.2369 38.4767 51.1401 38.931 51.0271C39.691 50.8334 39.947 51.0432 40.0792 51.9792C40.2196 52.8184 40.2609 52.8587 40.8474 52.8587C41.8387 52.8587 41.9626 52.6812 41.723 51.6323C41.533 50.6801 41.6074 50.4542 42.2104 50.3412C42.4912 50.3009 42.6647 50.5107 42.9373 51.2127C43.1521 51.713 43.3503 52.1729 43.3916 52.2051C43.466 52.2858 44.895 51.7533 44.895 51.6323C44.895 51.6161 44.7215 51.0997 44.5233 50.5107C44.2507 49.7442 44.2094 49.4214 44.3663 49.3649C44.6389 49.2681 43.5816 47.1541 43.2099 47.0008C43.0777 46.9604 42.3673 47.0976 41.6487 47.3074C40.9052 47.493 40.0049 47.7269 39.6745 47.7834C39.0632 47.8803 39.0219 47.8399 39.0219 47.3639C39.0219 46.8878 39.121 46.8313 40.4179 46.5247C41.1944 46.331 42.1526 46.0244 42.5656 45.7985L43.3255 45.4193L45.5558 48.7356C48.5543 53.1815 48.3809 52.7458 47.3979 53.238C45.6219 54.1336 41.5661 55.3359 40.2609 55.3359H39.6084V59.8786V64.4133L41.1365 64.2438C41.9626 64.147 42.9373 64.0502 43.309 64.0502C44.0359 64.0179 43.9946 63.9614 44.5811 66.4224L44.6967 66.9308L46.7949 66.5515C47.9431 66.3579 48.926 66.1481 48.9839 66.1158C49.0252 66.0593 48.9013 65.2928 48.7113 64.381C48.513 63.445 48.4387 62.6785 48.5295 62.6059C48.6287 62.5252 49.3721 62.1459 50.1981 61.7829L51.7015 61.097L52.8415 62.6059C53.461 63.4208 54.0475 64.1067 54.1466 64.1067C54.5431 64.1067 57.7894 61.7667 57.6738 61.5731C57.5911 61.4601 57.1203 60.8065 56.5916 60.1449C56.0878 59.459 55.6582 58.8458 55.6582 58.7893C55.6582 58.7086 56.2778 58.1599 57.046 57.5467L58.4337 56.4413L59.6893 57.6435L60.9531 58.8297L61.7791 58.0793C62.2252 57.6839 62.9686 56.998 63.4395 56.5785L64.2655 55.8281L62.8943 54.4806L61.5231 53.125L62.5061 51.8098C63.0347 51.0836 63.4973 50.4139 63.5386 50.317C63.5551 50.2202 64.282 50.4542 65.1246 50.8334C65.9671 51.2127 66.7684 51.5193 66.884 51.5193C67.0575 51.5193 68.9574 48.1223 68.9574 47.8238C68.9574 47.7834 68.2553 47.4203 67.3962 47.0169C66.5371 46.6377 65.8267 46.2584 65.8267 46.2019C65.8267 46.1455 66.0828 45.4354 66.3967 44.6527C66.7106 43.87 66.9997 42.9905 67.0823 42.692L67.1979 42.1756H62.5969H58.0042L57.7068 42.8614C57.302 43.8378 56.1208 45.7017 55.1296 46.9846C54.2292 48.1465 51.7841 50.5672 51.5033 50.5672C51.4124 50.5672 50.8424 49.8248 50.2394 48.905C49.6282 47.9771 48.5295 46.3552 47.7861 45.266C47.0675 44.1928 46.4562 43.2649 46.4562 43.2003C46.4562 43.1681 46.8114 42.6678 47.2657 42.1353C48.6287 40.4408 49.7273 37.9233 50.0577 35.6318L50.1981 34.7361H51.0737C51.8419 34.7361 51.9411 34.7765 51.9411 35.1718C51.9411 36.5274 50.5864 40.2471 49.5869 41.6027C49.3721 41.8851 49.1986 42.1917 49.1986 42.2482C49.1986 42.3047 49.6117 42.3612 50.1403 42.3612C50.7598 42.3612 51.4702 42.5548 52.288 42.9341C52.9736 43.2649 53.6014 43.4747 53.7005 43.4182C53.874 43.2972 54.3614 42.1756 54.2622 42.0949C54.2292 42.0788 53.7749 41.8125 53.2462 41.522C52.445 41.0863 52.3458 40.9733 52.5276 40.6506C52.7754 40.1907 52.8414 40.1907 53.8905 40.5538C54.9726 40.9169 54.9726 40.9169 55.2204 40.3601C55.6004 39.5613 55.5013 39.3918 54.5431 39.0287C53.3288 38.585 53.271 38.5123 53.4279 37.8991C53.5436 37.3827 53.5601 37.3827 54.7744 37.5037C55.4435 37.5764 56.0465 37.5602 56.1043 37.4795C56.1621 37.3827 56.2447 37.0035 56.2778 36.6404L56.3438 35.9787L55.1626 35.7851C54.1714 35.6156 53.9731 35.5188 53.9318 35.1557C53.874 34.7523 53.9318 34.7361 55.1461 34.7361H56.4347V33.8728V33.0175H55.1626H53.8905V32.372C53.8905 31.6458 53.9566 31.6054 55.4187 31.3956L56.2778 31.2665L56.1456 30.5565C56.063 30.1772 55.9473 29.8141 55.8895 29.7415C55.8152 29.677 55.2865 29.7012 54.7165 29.8141C53.8575 29.9836 53.6179 29.9675 53.4858 29.7577C53.1719 29.2574 53.304 29.088 54.4027 28.7249C54.9891 28.5393 55.5178 28.3295 55.5343 28.2649C55.5756 28.2084 55.4765 27.8292 55.3196 27.45L55.0304 26.7641L53.9566 27.1272C53.3453 27.3128 52.8414 27.4661 52.8167 27.45C52.7175 27.2402 52.3293 26.3042 52.3293 26.2477C52.3293 26.2074 52.8167 25.9008 53.4279 25.578C54.0144 25.2391 54.5596 24.8518 54.6174 24.7227C54.7331 24.4161 54.1301 23.4801 53.8162 23.4801C53.7005 23.4963 53.1719 23.7867 52.6184 24.1498C51.6437 24.7953 51.6437 24.7953 51.3298 24.4161C51.0407 24.0369 51.0159 24.0369 50.1981 24.755L49.3556 25.4812L49.8429 26.2074C50.5699 27.2402 51.5033 29.7173 51.7841 31.2827C51.9163 32.025 51.9741 32.6786 51.9163 32.7109C51.8585 32.7673 51.4702 32.8642 51.0159 32.9449L50.2147 33.0578L50.0825 32.138C49.8677 30.5968 49.2152 28.6119 48.4139 27.1837L47.6705 25.8281L50.256 23.7302C57.8307 17.5334 60.7631 15.145 61.9196 14.2494L63.1834 13.2408L64.5546 13.3699C65.3228 13.4506 65.9258 13.4828 65.9424 13.4828C66.1984 13.2166 69.9404 7.03584 69.9404 6.88253C69.9404 6.61626 70.2295 6.55978 65.7689 7.84272L62.1343 8.89167L62.0352 9.74697C61.9774 10.223 61.8783 11.0783 61.7957 11.6512L61.6635 12.7002L54.2292 18.7276L46.7701 24.7792L45.5806 23.7302C44.2672 22.5683 41.9213 21.3419 40.2775 20.9788C39.2614 20.7529 39.2201 20.7367 39.2201 20.1073C39.2201 19.3973 39.1458 19.4215 40.9796 19.8733C41.3513 19.9702 41.723 20.0509 41.8221 20.0509C41.9047 20.0509 41.9626 19.3569 41.9626 18.5016C41.9626 17.0896 41.9213 16.9605 41.5496 16.8637C41.1778 16.7668 41.1613 16.6539 41.277 15.7582L41.3926 14.7416L40.5914 14.6125C40.137 14.5318 39.7488 14.5156 39.691 14.5721C39.6497 14.6125 39.534 15.0321 39.4514 15.492C39.3771 15.968 39.2036 16.3311 39.0632 16.3069C38.9475 16.2908 38.6915 16.2746 38.5345 16.2504C38.3198 16.2343 38.2454 15.9842 38.2454 15.2822V14.322H37.3616H36.4777V15.2822C36.4777 16.0649 36.4199 16.2343 36.1473 16.2343C35.9573 16.2343 35.6021 16.2908 35.3626 16.3473C34.9743 16.4441 34.9165 16.3634 34.8008 15.7018C34.6191 14.6125 34.5035 14.5156 33.6609 14.6528L32.9175 14.7658L33.0579 15.7582C33.1736 16.6942 33.157 16.7668 32.7275 16.8798C32.0419 17.0493 32.0419 17.0493 31.7858 16.1375C31.5132 15.1854 31.4719 15.1612 30.5137 15.5485L29.8529 15.8309L30.1255 16.5006C30.2824 16.8637 30.4146 17.3559 30.4146 17.5899C30.4146 17.9126 31.2737 19.4215 31.9015 20.1961C31.9262 20.2364 32.744 20.1073 33.7022 19.8733C35.9573 19.3569 35.9325 19.3569 35.8582 20.067C35.8004 20.6399 35.7177 20.6964 34.2309 21.1321C33.3718 21.3822 32.5293 21.6324 32.3558 21.6888C32.1162 21.7615 31.4719 20.9626 29.8281 18.4855C28.6138 16.67 27.4987 14.9917 27.3418 14.7658C27.0692 14.3623 27.1105 14.322 28.1843 13.8459C30.712 12.7244 34.4704 11.8449 36.8329 11.8449H37.6589V7.55225V3.25963H36.7172H35.759L35.503 1.63779C35.2139 -0.226107 35.4452 -0.113143 32.6119 0.306436ZM39.1458 25.9815C43.4825 26.7641 46.4562 30.847 45.7375 35.0427C44.5976 41.5059 36.3868 44.0234 31.6454 39.3515C27.2096 34.9459 29.2995 27.6759 35.503 26.0379C36.6181 25.7313 37.6754 25.7152 39.1458 25.9815Z" fill="white"/>
<path d="M30.8854 0.645327C30.8276 0.685671 30.8854 1.2747 31.0011 1.94441C31.1167 2.61412 31.2406 3.31611 31.2572 3.5259C31.2985 3.81638 31.0424 3.94548 29.9272 4.23596C27.3418 4.92181 27.6226 5.01863 27.0939 3.37259C26.8379 2.57378 26.5405 1.92827 26.4414 1.92827C25.8962 1.92827 22.3938 3.13053 22.3938 3.31611C22.3938 3.45328 22.6086 4.13913 22.8812 4.88146C23.1372 5.60766 23.3768 6.30965 23.3768 6.43068C23.3768 6.60012 20.6178 8.41561 20.337 8.41561C20.2792 8.41561 19.6596 7.80238 18.9492 7.07618C18.2306 6.33385 17.6028 5.74483 17.5202 5.74483C17.4624 5.74483 16.6859 6.34999 15.7855 7.09232L14.1582 8.44789L15.4716 9.88414L16.7768 11.2962L15.4469 12.6114L14.1169 13.9024L12.787 12.8777C12.0684 12.3048 11.4158 11.8449 11.3828 11.8449C11.3415 11.8449 10.6558 12.5872 9.87112 13.4828C8.68162 14.8626 8.48338 15.1854 8.72293 15.3548C10.2263 16.4602 11.4406 17.4124 11.4406 17.493C11.4406 17.5899 9.8959 20.4301 9.73895 20.5995C9.69765 20.656 8.9377 20.4462 8.01254 20.1396C7.11216 19.8411 6.33569 19.6313 6.29438 19.6878C5.96397 20.0509 4.7497 23.5205 4.90665 23.6496C5.00577 23.7464 5.7079 24.0127 6.45133 24.2467C7.21128 24.4726 7.88037 24.7227 7.93819 24.7953C8.07036 24.9083 7.32693 28.1358 7.13694 28.3053C7.07912 28.3618 6.33569 28.2891 5.49313 28.1358C4.63405 27.9987 3.90714 27.9099 3.86584 27.9422C3.82454 27.9664 3.59325 28.9185 3.33718 30.0401C3.02329 31.4763 2.94894 32.1218 3.10589 32.1622C3.22153 32.1945 3.94845 32.3316 4.69188 32.4446C6.79827 32.7915 6.74044 32.7512 6.74044 33.6065V34.3569H10.9532H15.1577V33.2434C15.1743 28.9589 16.9585 24.0127 19.7505 20.4301C20.6922 19.244 23.0216 16.904 23.5503 16.6297C23.8394 16.4844 24.1946 16.904 26.0366 19.6071C27.2096 21.3419 28.3413 23.0605 28.5395 23.4075L28.9112 24.0127L28.0108 25.0293C26.8957 26.2881 25.8962 28.0793 25.3097 29.9675C24.9215 31.1455 24.8389 31.8152 24.8636 33.784C24.8636 35.0992 24.9545 36.5113 25.0949 36.9309C25.2684 37.5037 25.2684 37.7135 25.0784 37.8265C24.9545 37.8991 19.3044 39.7711 12.5309 41.9819C5.7492 44.1767 0.132165 46.0648 0.0495611 46.1455C-0.0247821 46.2181 5.6253 44.4268 12.6549 42.1353C19.6596 39.8437 25.4088 37.9959 25.4254 38.0363C25.4501 38.0524 25.6071 38.472 25.7805 38.9481C25.9788 39.4241 26.4249 40.2875 26.7966 40.8604C28.11 42.8776 28.4569 42.1917 23.6494 47.0169C19.6183 51.0836 19.2631 51.3902 17.132 52.6489L14.8604 53.9803L14.3895 56.3283C14.1417 57.6274 13.8443 58.8297 13.7452 58.9991C13.6461 59.1928 13.6296 59.338 13.7122 59.338C13.7865 59.338 14.976 58.7732 16.3885 58.047L18.9327 56.764L19.8331 54.9324C20.7087 53.1411 20.8491 52.9717 24.9958 48.8324C27.3418 46.4843 29.3986 44.4833 29.5555 44.4026C29.729 44.3138 30.0677 44.4268 30.4724 44.7092C31.8436 45.742 33.9005 46.5247 35.9573 46.8474C36.5603 46.9443 36.6759 47.0411 36.6759 47.4203C36.6759 47.6866 36.5603 47.8964 36.4447 47.8964C35.9325 47.8803 33.5866 47.5172 33.2727 47.4042C33.0001 47.3074 32.9588 47.4768 32.9588 48.905C32.9588 50.3574 33.0001 50.551 33.3305 50.664C33.6444 50.7608 33.7022 50.8899 33.5866 51.479C33.347 52.8587 33.3883 52.9313 34.2309 53.0685C34.6604 53.1411 35.0734 53.1653 35.1313 53.125C35.2139 53.0846 35.3047 52.6247 35.3873 52.0922C35.503 51.2369 35.5608 51.1401 35.9903 51.1401C36.4612 51.1401 36.4777 51.1965 36.4777 52.189V53.238H37.4607H38.4354V52.189C38.4354 51.2369 38.4767 51.1401 38.931 51.0271C39.691 50.8334 39.947 51.0432 40.0792 51.9792C40.2196 52.8184 40.2609 52.8587 40.8474 52.8587C41.8387 52.8587 41.9626 52.6812 41.723 51.6323C41.533 50.6801 41.6074 50.4542 42.2104 50.3412C42.4912 50.3009 42.6647 50.5107 42.9373 51.2127C43.1521 51.713 43.3503 52.1729 43.3916 52.2051C43.466 52.2858 44.895 51.7533 44.895 51.6323C44.895 51.6161 44.7215 51.0997 44.5233 50.5107C44.2507 49.7442 44.2094 49.4214 44.3663 49.3649C44.6389 49.2681 43.5816 47.1541 43.2099 47.0008C43.0777 46.9604 42.3673 47.0976 41.6487 47.3074C40.9052 47.493 40.0049 47.7269 39.6745 47.7834C39.0632 47.8803 39.0219 47.8399 39.0219 47.3639C39.0219 46.8878 39.121 46.8313 40.4179 46.5247C41.1944 46.331 42.1526 46.0244 42.5656 45.7985L43.3255 45.4193L45.5558 48.7356C48.5543 53.1815 48.3809 52.7458 47.3979 53.238C45.6219 54.1336 41.5661 55.3359 40.2609 55.3359H39.6084V59.8786V64.4133L41.1365 64.2438C41.9626 64.147 42.9373 64.0502 43.309 64.0502C44.0359 64.0179 43.9946 63.9614 44.5811 66.4224L44.6967 66.9308L46.7949 66.5515C47.9431 66.3579 48.926 66.1481 48.9839 66.1158C49.0252 66.0593 48.9013 65.2928 48.7113 64.381C48.513 63.445 48.4387 62.6785 48.5295 62.6059C48.6287 62.5252 49.3721 62.1459 50.1981 61.7829L51.7015 61.097L52.8415 62.6059C53.461 63.4208 54.0475 64.1067 54.1466 64.1067C54.5431 64.1067 57.7894 61.7667 57.6738 61.5731C57.5911 61.4601 57.1203 60.8065 56.5916 60.1449C56.0878 59.459 55.6582 58.8458 55.6582 58.7893C55.6582 58.7086 56.2778 58.1599 57.046 57.5467L58.4337 56.4413L59.6893 57.6435L60.9531 58.8297L61.7791 58.0793C62.2252 57.6839 62.9686 56.998 63.4395 56.5785L64.2655 55.8281L62.8943 54.4806L61.5231 53.125L62.5061 51.8098C63.0347 51.0836 63.4973 50.4139 63.5386 50.317C63.5551 50.2202 64.282 50.4542 65.1246 50.8334C65.9671 51.2127 66.7684 51.5193 66.884 51.5193C67.0575 51.5193 68.9574 48.1223 68.9574 47.8238C68.9574 47.7834 68.2553 47.4203 67.3962 47.0169C66.5371 46.6377 65.8267 46.2584 65.8267 46.2019C65.8267 46.1455 66.0828 45.4354 66.3967 44.6527C66.7106 43.87 66.9997 42.9905 67.0823 42.692L67.1979 42.1756H62.5969H58.0042L57.7068 42.8614C57.302 43.8378 56.1208 45.7017 55.1296 46.9846C54.2292 48.1465 51.7841 50.5672 51.5033 50.5672C51.4124 50.5672 50.8424 49.8248 50.2394 48.905C49.6282 47.9771 48.5295 46.3552 47.7861 45.266C47.0675 44.1928 46.4562 43.2649 46.4562 43.2003C46.4562 43.1681 46.8114 42.6678 47.2657 42.1353C48.6287 40.4408 49.7273 37.9233 50.0577 35.6318L50.1981 34.7361H51.0737C51.8419 34.7361 51.9411 34.7765 51.9411 35.1718C51.9411 36.5274 50.5864 40.2471 49.5869 41.6027C49.3721 41.8851 49.1986 42.1917 49.1986 42.2482C49.1986 42.3047 49.6117 42.3612 50.1403 42.3612C50.7598 42.3612 51.4702 42.5548 52.288 42.9341C52.9736 43.2649 53.6014 43.4747 53.7005 43.4182C53.874 43.2972 54.3614 42.1756 54.2622 42.0949C54.2292 42.0788 53.7749 41.8125 53.2462 41.522C52.445 41.0863 52.3458 40.9733 52.5276 40.6506C52.7754 40.1907 52.8414 40.1907 53.8905 40.5538C54.9726 40.9169 54.9726 40.9169 55.2204 40.3601C55.6004 39.5613 55.5013 39.3918 54.5431 39.0287C53.3288 38.585 53.271 38.5123 53.4279 37.8991C53.5436 37.3827 53.5601 37.3827 54.7744 37.5037C55.4435 37.5764 56.0465 37.5602 56.1043 37.4795C56.1621 37.3827 56.2447 37.0035 56.2778 36.6404L56.3438 35.9787L55.1626 35.7851C54.1714 35.6156 53.9731 35.5188 53.9318 35.1557C53.874 34.7523 53.9318 34.7361 55.1461 34.7361H56.4347V33.8728V33.0175H55.1626H53.8905V32.372C53.8905 31.6458 53.9566 31.6054 55.4187 31.3956L56.2778 31.2665L56.1456 30.5565C56.063 30.1772 55.9473 29.8141 55.8895 29.7415C55.8152 29.677 55.2865 29.7012 54.7165 29.8141C53.8575 29.9836 53.6179 29.9675 53.4858 29.7577C53.1719 29.2574 53.304 29.088 54.4027 28.7249C54.9891 28.5393 55.5178 28.3295 55.5343 28.2649C55.5756 28.2084 55.4765 27.8292 55.3196 27.45L55.0304 26.7641L53.9566 27.1272C53.3453 27.3128 52.8414 27.4661 52.8167 27.45C52.7175 27.2402 52.3293 26.3042 52.3293 26.2477C52.3293 26.2074 52.8167 25.9008 53.4279 25.578C54.0144 25.2391 54.5596 24.8518 54.6174 24.7227C54.7331 24.4161 54.1301 23.4801 53.8162 23.4801C53.7005 23.4963 53.1719 23.7867 52.6184 24.1498C51.6437 24.7953 51.6437 24.7953 51.3298 24.4161C51.0407 24.0369 51.0159 24.0369 50.1981 24.755L49.3556 25.4812L49.8429 26.2074C50.5699 27.2402 51.5033 29.7173 51.7841 31.2827C51.9163 32.025 51.9741 32.6786 51.9163 32.7109C51.8585 32.7673 51.4702 32.8642 51.0159 32.9449L50.2147 33.0578L50.0825 32.138C49.8677 30.5968 49.2152 28.6119 48.4139 27.1837L47.6705 25.8281L50.256 23.7302C57.8307 17.5334 60.7631 15.145 61.9196 14.2494L63.1834 13.2408L64.5546 13.3699C65.3228 13.4506 65.9258 13.4828 65.9424 13.4828C66.1984 13.2166 69.9404 7.03584 69.9404 6.88253C69.9404 6.61626 70.2295 6.55978 65.7689 7.84272L62.1343 8.89167L62.0352 9.74697C61.9774 10.223 61.8783 11.0783 61.7957 11.6512L61.6635 12.7002L54.2292 18.7276L46.7701 24.7792L45.5806 23.7302C44.2672 22.5683 41.9213 21.3419 40.2775 20.9788C39.2614 20.7529 39.2201 20.7367 39.2201 20.1073C39.2201 19.3973 39.1458 19.4215 40.9796 19.8733C41.3513 19.9702 41.723 20.0509 41.8221 20.0509C41.9047 20.0509 41.9626 19.3569 41.9626 18.5016C41.9626 17.0896 41.9213 16.9605 41.5496 16.8637C41.1778 16.7668 41.1613 16.6539 41.277 15.7582L41.3926 14.7416L40.5914 14.6125C40.137 14.5318 39.7488 14.5156 39.691 14.5721C39.6497 14.6125 39.534 15.0321 39.4514 15.492C39.3771 15.968 39.2036 16.3311 39.0632 16.3069C38.9475 16.2908 38.6915 16.2746 38.5345 16.2504C38.3198 16.2343 38.2454 15.9842 38.2454 15.2822V14.322H37.3616H36.4777V15.2822C36.4777 16.0649 36.4199 16.2343 36.1473 16.2343C35.9573 16.2343 35.6021 16.2908 35.3626 16.3473C34.9743 16.4441 34.9165 16.3634 34.8008 15.7018C34.6191 14.6125 34.5035 14.5156 33.6609 14.6528L32.9175 14.7658L33.0579 15.7582C33.1736 16.6942 33.157 16.7668 32.7275 16.8798C32.0419 17.0493 32.0419 17.0493 31.7858 16.1375C31.5132 15.1854 31.4719 15.1612 30.5137 15.5485L29.8529 15.8309L30.1255 16.5006C30.2824 16.8637 30.4146 17.3559 30.4146 17.5899C30.4146 17.9126 31.2737 19.4215 31.9015 20.1961C31.9262 20.2364 32.744 20.1073 33.7022 19.8733C35.9573 19.3569 35.9325 19.3569 35.8582 20.067C35.8004 20.6399 35.7177 20.6964 34.2309 21.1321C33.3718 21.3822 32.5293 21.6324 32.3558 21.6888C32.1162 21.7615 31.4719 20.9626 29.8281 18.4855C28.6138 16.67 27.4987 14.9917 27.3418 14.7658C27.0692 14.3623 27.1105 14.322 28.1843 13.8459C30.712 12.7244 34.4704 11.8449 36.8329 11.8449H37.6589V7.55225V3.25963H36.7172H35.759L35.503 1.63779C35.2139 -0.226107 35.4452 -0.113143 32.6119 0.306436C31.7115 0.435537 30.9267 0.588845 30.8854 0.645327ZM45.7375 35.0427C44.5976 41.5059 36.3868 44.0234 31.6454 39.3515C27.2096 34.9459 29.2995 27.6759 35.503 26.0379C36.6181 25.7313 37.6754 25.7152 39.1458 25.9815C43.4825 26.7641 46.4562 30.847 45.7375 35.0427Z" stroke="white" stroke-width="0.133333"/>
<path d="M36.2877 29.3786C33.9996 30.0968 32.5871 32.0817 32.8266 34.2361C33.0992 36.8181 34.9165 38.4319 37.5598 38.4319C38.5758 38.4319 39.121 38.3431 39.7075 38.0365C43.1521 36.2452 43.1768 31.4523 39.7488 29.7417C38.8897 29.3141 37.0724 29.1285 36.2877 29.3786Z" fill="white"/>
<path d="M32.8266 34.2361C33.0992 36.8181 34.9165 38.4319 37.5598 38.4319C38.5758 38.4319 39.121 38.3431 39.7075 38.0365C43.1521 36.2452 43.1768 31.4523 39.7488 29.7417C38.8897 29.3141 37.0724 29.1285 36.2877 29.3786C33.9996 30.0968 32.5871 32.0817 32.8266 34.2361Z" stroke="white" stroke-width="0.133333"/>
<path d="M48.6287 19.4217L47.8522 20.3173L47.3401 19.8574C47.084 19.6072 46.8114 19.4378 46.7701 19.4943C46.737 19.5346 46.4562 20.0672 46.1671 20.6965L45.6219 21.802L46.481 22.5443C46.9518 22.9477 47.3979 23.2705 47.4557 23.2866C47.7861 23.3108 49.3556 21.8988 49.2565 21.6486C49.1986 21.5195 49.4712 21.0435 49.8677 20.5836C50.256 20.1398 50.5699 19.6879 50.5699 19.5508C50.5699 19.4217 50.3138 19.1312 49.9999 18.9214L49.4299 18.5179L48.6287 19.4217Z" fill="white"/>
<path d="M47.8522 20.3173L47.3401 19.8574C47.084 19.6072 46.8114 19.4378 46.7701 19.4943C46.737 19.5346 46.4562 20.0672 46.1671 20.6965L45.6219 21.802L46.481 22.5443C46.9518 22.9477 47.3979 23.2705 47.4557 23.2866C47.7861 23.3108 49.3556 21.8988 49.2565 21.6486C49.1986 21.5195 49.4712 21.0435 49.8677 20.5836C50.256 20.1398 50.5699 19.6879 50.5699 19.5508C50.5699 19.4217 50.3138 19.1312 49.9999 18.9214L49.4299 18.5179L48.6287 19.4217L47.8522 20.3173Z" stroke="white" stroke-width="0.133333"/>
<path d="M24.0376 19.93C23.6824 20.1962 23.6824 20.2366 24.3102 20.8498C25.0206 21.576 25.0784 21.8019 24.6489 22.1489C24.3515 22.3748 24.2524 22.3345 23.0629 21.4792C22.8812 21.3662 22.6499 21.4388 22.2947 21.7616C22.0221 22.0117 21.8073 22.3022 21.8073 22.4152C21.8238 22.5281 22.1625 22.867 22.5673 23.1978L23.3107 23.7707L22.939 24.4889L22.5673 25.2151L21.6752 24.739C21.1795 24.4727 20.7087 24.2468 20.6178 24.2468C20.5187 24.2468 20.3039 24.5131 20.147 24.8358C19.7753 25.5378 19.9074 25.7476 21.0226 26.2479C21.8238 26.5868 21.9477 26.7965 21.6339 27.2968C21.4769 27.5227 21.3034 27.5227 20.337 27.2161C19.734 27.0305 19.2053 26.9176 19.1888 26.9499C19.0484 27.1435 18.6766 28.0956 18.6766 28.2328C18.6766 28.3296 19.2053 28.5717 19.8744 28.8057C20.75 29.1284 21.0226 29.2979 20.9482 29.5238C20.8904 29.6771 20.8326 29.9272 20.8326 30.0967C20.8326 30.3468 20.6178 30.371 19.4779 30.25L18.148 30.1209L18.0158 30.7261C17.8176 31.7589 17.8589 31.8154 18.8336 31.9525C20.2048 32.1381 20.4361 32.2591 20.4361 32.6384C20.4361 32.9611 20.2626 33.0015 19.131 33.058L17.8011 33.1144L17.735 33.9132L17.6771 34.7363H19.0484H20.4196L20.5352 35.6319C20.7335 37.044 20.7087 37.0278 21.9808 37.0278H23.1372L22.939 36.2048C22.6334 34.8896 22.8646 31.0327 23.3768 29.4915C24.0211 27.5066 25.0371 25.7315 26.3505 24.3355L27.5235 23.101L26.6809 21.9956C25.7392 20.7691 24.7232 19.6637 24.5498 19.6637C24.4919 19.6637 24.2524 19.7767 24.0376 19.93Z" fill="white"/>
<path d="M24.3102 20.8498C25.0206 21.576 25.0784 21.8019 24.6489 22.1489C24.3515 22.3748 24.2524 22.3345 23.0629 21.4792C22.8812 21.3662 22.6499 21.4388 22.2947 21.7616C22.0221 22.0117 21.8073 22.3022 21.8073 22.4152C21.8238 22.5281 22.1625 22.867 22.5673 23.1978L23.3107 23.7707L22.939 24.4889L22.5673 25.2151L21.6752 24.739C21.1795 24.4727 20.7087 24.2468 20.6178 24.2468C20.5187 24.2468 20.3039 24.5131 20.147 24.8358C19.7753 25.5378 19.9074 25.7476 21.0226 26.2479C21.8238 26.5868 21.9477 26.7965 21.6339 27.2968C21.4769 27.5227 21.3034 27.5227 20.337 27.2161C19.734 27.0305 19.2053 26.9176 19.1888 26.9499C19.0484 27.1435 18.6766 28.0956 18.6766 28.2328C18.6766 28.3296 19.2053 28.5717 19.8744 28.8057C20.75 29.1284 21.0226 29.2979 20.9482 29.5238C20.8904 29.6771 20.8326 29.9272 20.8326 30.0967C20.8326 30.3468 20.6178 30.371 19.4779 30.25L18.148 30.1209L18.0158 30.7261C17.8176 31.7589 17.8589 31.8154 18.8336 31.9525C20.2048 32.1381 20.4361 32.2591 20.4361 32.6384C20.4361 32.9611 20.2626 33.0015 19.131 33.058L17.8011 33.1144L17.735 33.9132L17.6771 34.7363H19.0484H20.4196L20.5352 35.6319C20.7335 37.044 20.7087 37.0278 21.9808 37.0278H23.1372L22.939 36.2048C22.6334 34.8896 22.8646 31.0327 23.3768 29.4915C24.0211 27.5066 25.0371 25.7315 26.3505 24.3355L27.5235 23.101L26.6809 21.9956C25.7392 20.7691 24.7232 19.6637 24.5498 19.6637C24.4919 19.6637 24.2524 19.7767 24.0376 19.93C23.6824 20.1962 23.6824 20.2366 24.3102 20.8498Z" stroke="white" stroke-width="0.133333"/>
</g>
<path d="M88.9219 31.7031H83.0625V28.3281H88.9219C89.8802 28.3281 90.6562 28.1719 91.25 27.8594C91.8542 27.5365 92.2969 27.099 92.5781 26.5469C92.8594 25.9844 93 25.3438 93 24.625C93 23.9271 92.8594 23.276 92.5781 22.6719C92.2969 22.0677 91.8542 21.5781 91.25 21.2031C90.6562 20.8281 89.8802 20.6406 88.9219 20.6406H84.4688V40H80.1719V17.25H88.9219C90.6927 17.25 92.2031 17.5677 93.4531 18.2031C94.7135 18.8281 95.6719 19.6979 96.3281 20.8125C96.9948 21.9167 97.3281 23.1771 97.3281 24.5938C97.3281 26.0625 96.9948 27.3281 96.3281 28.3906C95.6719 29.4531 94.7135 30.2708 93.4531 30.8438C92.2031 31.4167 90.6927 31.7031 88.9219 31.7031ZM100.703 17.25H108.969C110.698 17.25 112.182 17.5104 113.422 18.0312C114.661 18.5521 115.615 19.3229 116.281 20.3438C116.948 21.3646 117.281 22.6198 117.281 24.1094C117.281 25.2865 117.073 26.3073 116.656 27.1719C116.24 28.0365 115.651 28.7604 114.891 29.3438C114.141 29.9271 113.255 30.3854 112.234 30.7188L110.891 31.4062H103.594L103.562 28.0156H109.016C109.901 28.0156 110.635 27.8594 111.219 27.5469C111.802 27.2344 112.24 26.8021 112.531 26.25C112.833 25.6979 112.984 25.0677 112.984 24.3594C112.984 23.599 112.839 22.9427 112.547 22.3906C112.255 21.8281 111.812 21.3958 111.219 21.0938C110.625 20.7917 109.875 20.6406 108.969 20.6406H105V40H100.703V17.25ZM113.547 40L108.281 29.8125L112.828 29.7969L118.156 39.7812V40H113.547ZM139.469 28.0469V29.2188C139.469 30.9375 139.24 32.4844 138.781 33.8594C138.323 35.224 137.672 36.3854 136.828 37.3438C135.984 38.3021 134.979 39.0365 133.812 39.5469C132.646 40.0573 131.349 40.3125 129.922 40.3125C128.516 40.3125 127.224 40.0573 126.047 39.5469C124.88 39.0365 123.87 38.3021 123.016 37.3438C122.161 36.3854 121.5 35.224 121.031 33.8594C120.562 32.4844 120.328 30.9375 120.328 29.2188V28.0469C120.328 26.3177 120.562 24.7708 121.031 23.4062C121.5 22.0417 122.156 20.8802 123 19.9219C123.844 18.9531 124.849 18.2135 126.016 17.7031C127.193 17.1927 128.484 16.9375 129.891 16.9375C131.318 16.9375 132.615 17.1927 133.781 17.7031C134.948 18.2135 135.953 18.9531 136.797 19.9219C137.651 20.8802 138.307 22.0417 138.766 23.4062C139.234 24.7708 139.469 26.3177 139.469 28.0469ZM135.125 29.2188V28.0156C135.125 26.776 135.01 25.6875 134.781 24.75C134.552 23.8021 134.214 23.0052 133.766 22.3594C133.318 21.7135 132.766 21.2292 132.109 20.9062C131.453 20.5729 130.714 20.4062 129.891 20.4062C129.057 20.4062 128.318 20.5729 127.672 20.9062C127.036 21.2292 126.495 21.7135 126.047 22.3594C125.599 23.0052 125.255 23.8021 125.016 24.75C124.786 25.6875 124.672 26.776 124.672 28.0156V29.2188C124.672 30.4479 124.786 31.5365 125.016 32.4844C125.255 33.4323 125.599 34.2344 126.047 34.8906C126.505 35.5365 127.057 36.026 127.703 36.3594C128.349 36.6927 129.089 36.8594 129.922 36.8594C130.755 36.8594 131.495 36.6927 132.141 36.3594C132.786 36.026 133.328 35.5365 133.766 34.8906C134.214 34.2344 134.552 33.4323 134.781 32.4844C135.01 31.5365 135.125 30.4479 135.125 29.2188Z" fill="#CC5722"/>
<path d="M169.094 36.625V40H152.516V36.625H169.094ZM153.688 36.625V45.5781H149.609L149.406 36.625H153.688ZM172.297 36.625L171.969 45.5938H167.984V36.625H172.297ZM166.422 17.25V20.6406H155.703V17.25H166.422ZM169.594 17.25V40H165.312V17.25H169.594ZM155.016 17.25H159.312L158.734 26.5C158.651 27.9896 158.495 29.3177 158.266 30.4844C158.047 31.651 157.776 32.6875 157.453 33.5938C157.13 34.5 156.771 35.2969 156.375 35.9844C155.99 36.6615 155.578 37.25 155.141 37.75C154.714 38.25 154.271 38.6823 153.812 39.0469C153.365 39.401 152.922 39.7188 152.484 40H150.094V36.625H151.125C151.427 36.3646 151.745 36 152.078 35.5312C152.422 35.0625 152.75 34.4427 153.062 33.6719C153.385 32.901 153.667 31.9271 153.906 30.75C154.146 29.5729 154.318 28.1562 154.422 26.5L155.016 17.25ZM182.266 40.3125C180.984 40.3125 179.833 40.1042 178.812 39.6875C177.792 39.2708 176.922 38.6927 176.203 37.9531C175.495 37.2031 174.948 36.3333 174.562 35.3438C174.188 34.3438 174 33.2708 174 32.125V31.5C174 30.1979 174.188 29.0156 174.562 27.9531C174.938 26.8802 175.469 25.9583 176.156 25.1875C176.844 24.4167 177.667 23.8229 178.625 23.4062C179.583 22.9896 180.641 22.7812 181.797 22.7812C182.995 22.7812 184.052 22.9844 184.969 23.3906C185.885 23.7865 186.651 24.349 187.266 25.0781C187.88 25.8073 188.344 26.6823 188.656 27.7031C188.969 28.7135 189.125 29.8333 189.125 31.0625V32.7969H175.875V29.9531H185.062V29.6406C185.042 28.9844 184.917 28.3854 184.688 27.8438C184.458 27.2917 184.104 26.8542 183.625 26.5312C183.146 26.1979 182.526 26.0312 181.766 26.0312C181.151 26.0312 180.615 26.1667 180.156 26.4375C179.708 26.6979 179.333 27.0729 179.031 27.5625C178.74 28.0417 178.521 28.6146 178.375 29.2812C178.229 29.9479 178.156 30.6875 178.156 31.5V32.125C178.156 32.8333 178.25 33.4896 178.438 34.0938C178.635 34.6979 178.922 35.224 179.297 35.6719C179.682 36.1094 180.141 36.4531 180.672 36.7031C181.214 36.9427 181.828 37.0625 182.516 37.0625C183.38 37.0625 184.161 36.8958 184.859 36.5625C185.568 36.2188 186.182 35.7135 186.703 35.0469L188.781 37.2031C188.427 37.724 187.948 38.224 187.344 38.7031C186.75 39.1823 186.031 39.5729 185.188 39.875C184.344 40.1667 183.37 40.3125 182.266 40.3125ZM199.906 23.0938V40H195.766V23.0938H199.906ZM205.406 23.0938V26.3125H190.359V23.0938H205.406ZM216.891 36.4062V28.6094C216.891 28.0365 216.792 27.5417 216.594 27.125C216.396 26.7083 216.094 26.3854 215.688 26.1562C215.281 25.9271 214.766 25.8125 214.141 25.8125C213.589 25.8125 213.104 25.9062 212.688 26.0938C212.281 26.2812 211.969 26.5469 211.75 26.8906C211.531 27.224 211.422 27.6094 211.422 28.0469H207.281C207.281 27.349 207.448 26.6875 207.781 26.0625C208.115 25.4271 208.589 24.8646 209.203 24.375C209.828 23.875 210.573 23.4844 211.438 23.2031C212.312 22.9219 213.292 22.7812 214.375 22.7812C215.656 22.7812 216.797 23 217.797 23.4375C218.807 23.8646 219.599 24.5104 220.172 25.375C220.755 26.2396 221.047 27.3281 221.047 28.6406V36.0156C221.047 36.8594 221.099 37.5833 221.203 38.1875C221.318 38.7812 221.484 39.2969 221.703 39.7344V40H217.5C217.302 39.5729 217.151 39.0312 217.047 38.375C216.943 37.7083 216.891 37.0521 216.891 36.4062ZM217.469 29.7031L217.5 32.1562H214.891C214.245 32.1562 213.677 32.224 213.188 32.3594C212.698 32.4844 212.297 32.6719 211.984 32.9219C211.672 33.1615 211.438 33.4531 211.281 33.7969C211.125 34.1302 211.047 34.5104 211.047 34.9375C211.047 35.3542 211.141 35.7292 211.328 36.0625C211.526 36.3958 211.807 36.6615 212.172 36.8594C212.547 37.0469 212.984 37.1406 213.484 37.1406C214.214 37.1406 214.849 36.9948 215.391 36.7031C215.932 36.401 216.354 36.0365 216.656 35.6094C216.958 35.1823 217.12 34.776 217.141 34.3906L218.328 36.1719C218.182 36.599 217.964 37.0521 217.672 37.5312C217.38 38.0104 217.005 38.4583 216.547 38.875C216.089 39.2917 215.536 39.6354 214.891 39.9062C214.245 40.1771 213.495 40.3125 212.641 40.3125C211.547 40.3125 210.568 40.0938 209.703 39.6562C208.839 39.2188 208.156 38.6198 207.656 37.8594C207.156 37.099 206.906 36.2344 206.906 35.2656C206.906 34.3698 207.073 33.5781 207.406 32.8906C207.74 32.2031 208.234 31.625 208.891 31.1562C209.547 30.6771 210.359 30.3177 211.328 30.0781C212.307 29.8281 213.427 29.7031 214.688 29.7031H217.469ZM236.125 23.0938V26.3594H227.844V23.0938H236.125ZM239.234 23.0938V40H235.109V23.0938H239.234ZM226.812 23.0938H230.891L230.438 31.5312C230.365 32.7708 230.234 33.8594 230.047 34.7969C229.859 35.724 229.609 36.5208 229.297 37.1875C228.984 37.8438 228.604 38.3802 228.156 38.7969C227.708 39.2135 227.188 39.5208 226.594 39.7188C226.01 39.9062 225.354 40 224.625 40H223.359L223.312 36.6719L223.906 36.625C224.271 36.5938 224.583 36.4948 224.844 36.3281C225.115 36.1615 225.344 35.9219 225.531 35.6094C225.729 35.2969 225.891 34.8958 226.016 34.4062C226.151 33.9062 226.255 33.3229 226.328 32.6562C226.411 31.9792 226.469 31.1979 226.5 30.3125L226.812 23.0938ZM247.188 34.1094L253.344 23.0938H257.484V40H253.344V28.9688L247.188 40H243.047V23.0938H247.188V34.1094Z" fill="white"/>
<defs>
<clipPath id="clip0_4_16">
<rect width="70" height="67" fill="white"/>
</clipPath>
</defs>
</svg>
