<svg width="40" height="22" viewBox="0 0 40 22" fill="none" xmlns="http://www.w3.org/2000/svg">
<g clip-path="url(#clip0_1_89)">
<path fill-rule="evenodd" clip-rule="evenodd" d="M2.56006 9.97006L11 18.5L28.9401 0.440059L31.0601 2.56006L12.0601 21.5601C11.3501 22.2701 10.6501 22.2701 9.94006 21.5601L0.440059 12.0601L2.56006 9.97006ZM0.440059 12.0601C-0.149941 11.4701 -0.149941 10.5301 0.440059 9.94006C1.03006 9.35006 1.97006 9.38006 2.56006 9.97006L0.440059 12.0601ZM28.9401 0.440059C29.5301 -0.149941 30.4701 -0.149941 31.0601 0.440059C31.6601 1.03006 31.6601 1.97006 31.0601 2.56006L28.9401 0.440059Z" fill="#CC5722"/>
</g>
<g clip-path="url(#clip1_1_89)">
<path fill-rule="evenodd" clip-rule="evenodd" d="M10.5601 9.97006L19 18.5L36.9401 0.440059L39.0601 2.56006L20.0601 21.5601C19.3501 22.2701 18.6501 22.2701 17.9401 21.5601L8.44006 12.0601L10.5601 9.97006ZM8.44006 12.0601C7.85006 11.4701 7.85006 10.5301 8.44006 9.94006C9.03006 9.35006 9.97006 9.38006 10.5601 9.97006L8.44006 12.0601ZM36.9401 0.440059C37.5301 -0.149941 38.4701 -0.149941 39.0601 0.440059C39.6601 1.03006 39.6601 1.97006 39.0601 2.56006L36.9401 0.440059Z" fill="#CC5722"/>
</g>
<defs>
<clipPath id="clip0_1_89">
<rect width="32" height="22" fill="white"/>
</clipPath>
<clipPath id="clip1_1_89">
<rect width="32" height="22" fill="white" transform="translate(8)"/>
</clipPath>
</defs>
</svg>
